<?xml version="1.0" encoding="UTF-8" standalone="no"?>
<!-- Generator: Adobe Illustrator 16.0.0, SVG Export Plug-In . SVG Version: 6.00 Build 0)  -->

<svg
   xmlns:dc="http://purl.org/dc/elements/1.1/"
   xmlns:cc="http://creativecommons.org/ns#"
   xmlns:rdf="http://www.w3.org/1999/02/22-rdf-syntax-ns#"
   xmlns:svg="http://www.w3.org/2000/svg"
   xmlns="http://www.w3.org/2000/svg"
   xmlns:sodipodi="http://sodipodi.sourceforge.net/DTD/sodipodi-0.dtd"
   xmlns:inkscape="http://www.inkscape.org/namespaces/inkscape"
   version="1.1"
   id="Capa_1"
   x="0px"
   y="0px"
   width="494px"
   height="694px"
   viewBox="0 0 494 694"
   style="enable-background:new 0 0 494 494;"
   xml:space="preserve"
   sodipodi:docname="door-closed2.svg"
   inkscape:version="0.92.5 (2060ec1f9f, 2020-04-08)"><metadata
   id="metadata41"><rdf:RDF><cc:Work
       rdf:about=""><dc:format>image/svg+xml</dc:format><dc:type
         rdf:resource="http://purl.org/dc/dcmitype/StillImage" /><dc:title></dc:title></cc:Work></rdf:RDF></metadata><defs
   id="defs39" /><sodipodi:namedview
   pagecolor="#ffffff"
   bordercolor="#666666"
   borderopacity="1"
   objecttolerance="10"
   gridtolerance="10"
   guidetolerance="10"
   inkscape:pageopacity="0"
   inkscape:pageshadow="2"
   inkscape:window-width="1920"
   inkscape:window-height="1016"
   id="namedview37"
   showgrid="false"
   inkscape:zoom="1.5064444"
   inkscape:cx="247.22951"
   inkscape:cy="406.54505"
   inkscape:window-x="0"
   inkscape:window-y="0"
   inkscape:window-maximized="1"
   inkscape:current-layer="Capa_1" />
<g
   id="g4"
   transform="matrix(1,0,0,1.42343,0,-9.0948532)">
	<path
   d="m 0,21.479 v 451.5 h 34 v -82.953 h 9.99 v 82.953 H 240.588 V 65.78 H 43.99 v 55.652 H 34 V 55.479 h 426.459 v 65.953 h -9.988 V 65.78 H 253.873 v 407.199 h 196.598 v -82.953 h 9.988 v 82.953 h 34 V 21.479 H 0 Z m 198.105,221.542 c 7.018,0 12.709,5.688 12.709,12.708 0,7.02 -5.691,12.708 -12.709,12.708 -7.018,0 -12.709,-5.688 -12.709,-12.708 0,-7.02 5.691,-12.708 12.709,-12.708 z M 43.99,168.453 v 174.55 H 34 v -174.55 h 9.99 z m 252.365,99.985 c -7.019,0 -12.709,-5.688 -12.709,-12.708 0,-7.02 5.69,-12.708 12.709,-12.708 7.018,0 12.709,5.688 12.709,12.708 0,7.02 -5.691,12.708 -12.709,12.708 z m 154.116,74.565 v -174.55 h 9.986 v 174.55 z"
   id="path2"
   inkscape:connector-curvature="0" />
</g>
<g
   id="g6">
</g>
<g
   id="g8">
</g>
<g
   id="g10">
</g>
<g
   id="g12">
</g>
<g
   id="g14">
</g>
<g
   id="g16">
</g>
<g
   id="g18">
</g>
<g
   id="g20">
</g>
<g
   id="g22">
</g>
<g
   id="g24">
</g>
<g
   id="g26">
</g>
<g
   id="g28">
</g>
<g
   id="g30">
</g>
<g
   id="g32">
</g>
<g
   id="g34">
</g>
</svg>